<?xml version="1.0" encoding="UTF-8" standalone="no"?><svg xmlns="http://www.w3.org/2000/svg" xmlns:xlink="http://www.w3.org/1999/xlink" height="707" version="1.1" width="1590.705078125"><defs/><g><g transform="translate(-22,2) scale(1,1)"><rect fill="#C0C0C0" height="175" opacity="0.2" stroke="none" width="466.056640625" x="39" y="255"/></g><g transform="translate(-22,2) scale(1,1)"><rect fill="#ffffff" height="175" stroke="none" width="466.056640625" x="32" y="248"/></g><g transform="translate(-22,2) scale(1,1)"><path d="M 32 248 L 498.056640625 248 L 498.056640625 423 L 32 423 L 32 248 Z Z" fill="none" stroke="#000000" stroke-miterlimit="10"/></g><g transform="translate(-22,2) scale(1,1)"><path d="M 32 288 L 498.056640625 288" fill="none" stroke="#000000" stroke-miterlimit="10"/></g><g transform="translate(-22,2) scale(1,1)"><path d="M 32 311 L 498.056640625 311" fill="none" stroke="#000000" stroke-miterlimit="10"/></g><g transform="translate(-22,2) scale(1,1)"><g><path fill="none" stroke="none"/><text fill="#000000" font-family="Arial" font-size="13px" font-style="normal" font-weight="bold" stroke="none" text-decoration="none" x="235.765625" y="267.5">Calculator</text></g></g><g transform="translate(-22,2) scale(1,1)"><g><path fill="none" stroke="none"/><text fill="#000000" font-family="Arial" font-size="13px" font-style="normal" font-weight="normal" stroke="none" text-decoration="none" x="213.7392578125" y="282.5">(from Processing)</text></g></g><g transform="translate(-22,2) scale(1,1)"><g><path fill="none" stroke="none"/><text fill="#000000" font-family="Arial" font-size="13px" font-style="normal" font-weight="normal" stroke="none" text-decoration="none" x="37" y="305.5">~userData: JSONObject</text></g></g><g transform="translate(-22,2) scale(1,1)"><g><path fill="none" stroke="none"/><text fill="#000000" font-family="Arial" font-size="13px" font-style="normal" font-weight="normal" stroke="none" text-decoration="none" x="37" y="328.5">«constructor»~Calculator(userData: JSONObject)</text></g></g><g transform="translate(-22,2) scale(1,1)"><g><path fill="none" stroke="none"/><text fill="#000000" font-family="Arial" font-size="13px" font-style="normal" font-weight="normal" stroke="none" text-decoration="none" x="37" y="343.5">+createDataJson(routeData: JSONObject): JSONObject</text></g></g><g transform="translate(-22,2) scale(1,1)"><g><path fill="none" stroke="none"/><text fill="#000000" font-family="Arial" font-size="13px" font-style="normal" font-weight="normal" stroke="none" text-decoration="none" x="37" y="358.5">-caloriesCounted(routeData: JSONObject, distance: float): float</text></g></g><g transform="translate(-22,2) scale(1,1)"><g><path fill="none" stroke="none"/><text fill="#000000" font-family="Arial" font-size="13px" font-style="normal" font-weight="normal" stroke="none" text-decoration="none" x="37" y="373.5">~calcMets(mph: float): float</text></g></g><g transform="translate(-22,2) scale(1,1)"><g><path fill="none" stroke="none"/><text fill="#000000" font-family="Arial" font-size="13px" font-style="normal" font-weight="normal" stroke="none" text-decoration="none" x="37" y="388.5">~calcDistance(routeData: JSONObject): float</text></g></g><g transform="translate(-22,2) scale(1,1)"><g><path fill="none" stroke="none"/><text fill="#000000" font-family="Arial" font-size="13px" font-style="normal" font-weight="normal" stroke="none" text-decoration="none" x="37" y="403.5">~getDistanceFromLatLonInKm(lat1: float, lon1: float, lat2: float, lon2: float): float</text></g></g><g transform="translate(-22,2) scale(1,1)"><g><path fill="none" stroke="none"/><text fill="#000000" font-family="Arial" font-size="13px" font-style="normal" font-weight="normal" stroke="none" text-decoration="none" x="37" y="418.5">~deg2rad(deg: double): double</text></g></g><g transform="translate(-22,2) scale(1,1)"><rect fill="#C0C0C0" height="115" opacity="0.2" stroke="none" width="211.28076171875" x="959" y="15"/></g><g transform="translate(-22,2) scale(1,1)"><rect fill="#ffffff" height="115" stroke="none" width="211.28076171875" x="952" y="8"/></g><g transform="translate(-22,2) scale(1,1)"><path d="M 952 8 L 1163.28076171875 8 L 1163.28076171875 123 L 952 123 L 952 8 Z Z" fill="none" stroke="#000000" stroke-miterlimit="10"/></g><g transform="translate(-22,2) scale(1,1)"><path d="M 952 48 L 1163.28076171875 48" fill="none" stroke="#000000" stroke-miterlimit="10"/></g><g transform="translate(-22,2) scale(1,1)"><path d="M 952 71 L 1163.28076171875 71" fill="none" stroke="#000000" stroke-miterlimit="10"/></g><g transform="translate(-22,2) scale(1,1)"><g><path fill="none" stroke="none"/><text fill="#000000" font-family="Arial" font-size="13px" font-style="normal" font-weight="bold" stroke="none" text-decoration="none" x="1029.8154296875" y="27.5">Database</text></g></g><g transform="translate(-22,2) scale(1,1)"><g><path fill="none" stroke="none"/><text fill="#000000" font-family="Arial" font-size="13px" font-style="normal" font-weight="normal" stroke="none" text-decoration="none" x="1006.351318359375" y="42.5">(from Processing)</text></g></g><g transform="translate(-22,2) scale(1,1)"><g><path fill="none" stroke="none"/><text fill="#000000" font-family="Arial" font-size="13px" font-style="normal" font-weight="normal" stroke="none" text-decoration="none" x="957" y="65.5">~data: HashMap</text></g></g><g transform="translate(-22,2) scale(1,1)"><g><path fill="none" stroke="none"/><text fill="#000000" font-family="Arial" font-size="13px" font-style="normal" font-weight="normal" stroke="none" text-decoration="none" x="957" y="88.5">«constructor»~Database()</text></g></g><g transform="translate(-22,2) scale(1,1)"><g><path fill="none" stroke="none"/><text fill="#000000" font-family="Arial" font-size="13px" font-style="normal" font-weight="normal" stroke="none" text-decoration="none" x="957" y="103.5">-addToDB(obj: JSONObject): void</text></g></g><g transform="translate(-22,2) scale(1,1)"><g><path fill="none" stroke="none"/><text fill="#000000" font-family="Arial" font-size="13px" font-style="normal" font-weight="normal" stroke="none" text-decoration="none" x="957" y="118.5">-getJSONById(id: int): JSONObject</text></g></g><g transform="translate(-22,2) scale(1,1)"><rect fill="#C0C0C0" height="175" opacity="0.2" stroke="none" width="257.18701171875" x="927" y="287"/></g><g transform="translate(-22,2) scale(1,1)"><rect fill="#ffffff" height="175" stroke="none" width="257.18701171875" x="920" y="280"/></g><g transform="translate(-22,2) scale(1,1)"><path d="M 920 280 L 1177.18701171875 280 L 1177.18701171875 455 L 920 455 L 920 280 Z Z" fill="none" stroke="#000000" stroke-miterlimit="10"/></g><g transform="translate(-22,2) scale(1,1)"><path d="M 920 320 L 1177.18701171875 320" fill="none" stroke="#000000" stroke-miterlimit="10"/></g><g transform="translate(-22,2) scale(1,1)"><path d="M 920 343 L 1177.18701171875 343" fill="none" stroke="#000000" stroke-miterlimit="10"/></g><g transform="translate(-22,2) scale(1,1)"><g><path fill="none" stroke="none"/><text fill="#000000" font-family="Arial" font-size="13px" font-style="normal" font-weight="bold" stroke="none" text-decoration="none" x="1012.100830078125" y="299.5">DataHandler</text></g></g><g transform="translate(-22,2) scale(1,1)"><g><path fill="none" stroke="none"/><text fill="#000000" font-family="Arial" font-size="13px" font-style="normal" font-weight="normal" stroke="none" text-decoration="none" x="997.304443359375" y="314.5">(from Processing)</text></g></g><g transform="translate(-22,2) scale(1,1)"><g><path fill="none" stroke="none"/><text fill="#000000" font-family="Arial" font-size="13px" font-style="normal" font-weight="normal" stroke="none" text-decoration="none" x="925" y="337.5">~currentId: int</text></g></g><g transform="translate(-22,2) scale(1,1)"><g><path fill="none" stroke="none"/><text fill="#000000" font-family="Arial" font-size="13px" font-style="normal" font-weight="normal" stroke="none" text-decoration="none" x="925" y="360.5">«constructor»~DataHandler()</text></g></g><g transform="translate(-22,2) scale(1,1)"><g><path fill="none" stroke="none"/><text fill="#000000" font-family="Arial" font-size="13px" font-style="normal" font-weight="normal" stroke="none" text-decoration="none" x="925" y="375.5">+addRouteObject(obj: JSONObject): void</text></g></g><g transform="translate(-22,2) scale(1,1)"><g><path fill="none" stroke="none"/><text fill="#000000" font-family="Arial" font-size="13px" font-style="normal" font-weight="normal" stroke="none" text-decoration="none" x="925" y="390.5">+getNextId(): int</text></g></g><g transform="translate(-22,2) scale(1,1)"><g><path fill="none" stroke="none"/><text fill="#000000" font-family="Arial" font-size="13px" font-style="normal" font-weight="normal" stroke="none" text-decoration="none" x="925" y="405.5">+JsonInDatabase(id: int): Boolean</text></g></g><g transform="translate(-22,2) scale(1,1)"><g><path fill="none" stroke="none"/><text fill="#000000" font-family="Arial" font-size="13px" font-style="normal" font-weight="normal" stroke="none" text-decoration="none" x="925" y="420.5">+getFloatAttrib(attrib: String, id: int): Float</text></g></g><g transform="translate(-22,2) scale(1,1)"><g><path fill="none" stroke="none"/><text fill="#000000" font-family="Arial" font-size="13px" font-style="normal" font-weight="normal" stroke="none" text-decoration="none" x="925" y="435.5">+getIntAttrib(attrib: String, id: int): int</text></g></g><g transform="translate(-22,2) scale(1,1)"><g><path fill="none" stroke="none"/><text fill="#000000" font-family="Arial" font-size="13px" font-style="normal" font-weight="normal" stroke="none" text-decoration="none" x="925" y="450.5">+getStringAttrib(attrib: String, id: int): String</text></g></g><g transform="translate(-22,2) scale(1,1)"><rect fill="#C0C0C0" height="87" opacity="0.2" stroke="none" width="325.2275390625" x="279" y="479"/></g><g transform="translate(-22,2) scale(1,1)"><rect fill="#ffffff" height="87" stroke="none" width="325.2275390625" x="272" y="472"/></g><g transform="translate(-22,2) scale(1,1)"><path d="M 272 472 L 597.2275390625 472 L 597.2275390625 559 L 272 559 L 272 472 Z Z" fill="none" stroke="#000000" stroke-miterlimit="10"/></g><g transform="translate(-22,2) scale(1,1)"><path d="M 272 512 L 597.2275390625 512" fill="none" stroke="#000000" stroke-miterlimit="10"/></g><g transform="translate(-22,2) scale(1,1)"><path d="M 272 522 L 597.2275390625 522" fill="none" stroke="#000000" stroke-miterlimit="10"/></g><g transform="translate(-22,2) scale(1,1)"><g><path fill="none" stroke="none"/><text fill="#000000" font-family="Arial" font-size="13px" font-style="normal" font-weight="bold" stroke="none" text-decoration="none" x="418.71923828125" y="491.5">Maps</text></g></g><g transform="translate(-22,2) scale(1,1)"><g><path fill="none" stroke="none"/><text fill="#000000" font-family="Arial" font-size="13px" font-style="normal" font-weight="normal" stroke="none" text-decoration="none" x="383.32470703125" y="506.5">(from Processing)</text></g></g><g transform="translate(-22,2) scale(1,1)"><g><path fill="none" stroke="none"/><text fill="#000000" font-family="Arial" font-size="13px" font-style="normal" font-weight="normal" stroke="none" text-decoration="none" x="277" y="539.5">+makeUrl(routeData: JSONObject): String</text><path d="M 277 539.5 L 519.38525390625 539.5" fill="none" stroke="#000000" stroke-miterlimit="10"/></g></g><g transform="translate(-22,2) scale(1,1)"><g><path fill="none" stroke="none"/><text fill="#000000" font-family="Arial" font-size="13px" font-style="normal" font-weight="normal" stroke="none" text-decoration="none" x="277" y="554.5">-getBound(coords: JSONArray, isMin: Boolean): float[*]</text><path d="M 277 554.5 L 593.2275390625 554.5" fill="none" stroke="#000000" stroke-miterlimit="10"/></g></g><g transform="translate(-22,2) scale(1,1)"><rect fill="#C0C0C0" height="295" opacity="0.2" stroke="none" width="306.705078125" x="1303" y="223"/></g><g transform="translate(-22,2) scale(1,1)"><rect fill="#ffffff" height="295" stroke="none" width="306.705078125" x="1296" y="216"/></g><g transform="translate(-22,2) scale(1,1)"><path d="M 1296 216 L 1602.705078125 216 L 1602.705078125 511 L 1296 511 L 1296 216 Z Z" fill="none" stroke="#000000" stroke-miterlimit="10"/></g><g transform="translate(-22,2) scale(1,1)"><path d="M 1296 256 L 1602.705078125 256" fill="none" stroke="#000000" stroke-miterlimit="10"/></g><g transform="translate(-22,2) scale(1,1)"><path d="M 1296 369 L 1602.705078125 369" fill="none" stroke="#000000" stroke-miterlimit="10"/></g><g transform="translate(-22,2) scale(1,1)"><g><path fill="none" stroke="none"/><text fill="#000000" font-family="Arial" font-size="13px" font-style="normal" font-weight="bold" stroke="none" text-decoration="none" x="1439.237548828125" y="235.5">Gui</text></g></g><g transform="translate(-22,2) scale(1,1)"><g><path fill="none" stroke="none"/><text fill="#000000" font-family="Arial" font-size="13px" font-style="normal" font-weight="normal" stroke="none" text-decoration="none" x="1398.0634765625" y="250.5">(from Processing)</text></g></g><g transform="translate(-22,2) scale(1,1)"><g><path fill="none" stroke="none"/><text fill="#000000" font-family="Arial" font-size="13px" font-style="normal" font-weight="normal" stroke="none" text-decoration="none" x="1301" y="273.5">~cp5: ControlP5</text></g></g><g transform="translate(-22,2) scale(1,1)"><g><path fill="none" stroke="none"/><text fill="#000000" font-family="Arial" font-size="13px" font-style="normal" font-weight="normal" stroke="none" text-decoration="none" x="1301" y="288.5">~cf1: ControlFont</text></g></g><g transform="translate(-22,2) scale(1,1)"><g><path fill="none" stroke="none"/><text fill="#000000" font-family="Arial" font-size="13px" font-style="normal" font-weight="normal" stroke="none" text-decoration="none" x="1301" y="303.5">~cf2: ControlFont</text></g></g><g transform="translate(-22,2) scale(1,1)"><g><path fill="none" stroke="none"/><text fill="#000000" font-family="Arial" font-size="13px" font-style="normal" font-weight="normal" stroke="none" text-decoration="none" x="1301" y="318.5">~cf3: ControlFont</text></g></g><g transform="translate(-22,2) scale(1,1)"><g><path fill="none" stroke="none"/><text fill="#000000" font-family="Arial" font-size="13px" font-style="normal" font-weight="normal" stroke="none" text-decoration="none" x="1301" y="333.5">~currentPage: int</text></g></g><g transform="translate(-22,2) scale(1,1)"><g><path fill="none" stroke="none"/><text fill="#000000" font-family="Arial" font-size="13px" font-style="normal" font-weight="normal" stroke="none" text-decoration="none" x="1301" y="348.5">~numRoutesDisplayed: int</text></g></g><g transform="translate(-22,2) scale(1,1)"><g><path fill="none" stroke="none"/><text fill="#000000" font-family="Arial" font-size="13px" font-style="normal" font-weight="normal" stroke="none" text-decoration="none" x="1301" y="363.5">~toDisplayPerPage: int</text></g></g><g transform="translate(-22,2) scale(1,1)"><g><path fill="none" stroke="none"/><text fill="#000000" font-family="Arial" font-size="13px" font-style="normal" font-weight="normal" stroke="none" text-decoration="none" x="1301" y="386.5">«constructor»~Gui(main: PApplet)</text></g></g><g transform="translate(-22,2) scale(1,1)"><g><path fill="none" stroke="none"/><text fill="#000000" font-family="Arial" font-size="13px" font-style="normal" font-weight="normal" stroke="none" text-decoration="none" x="1301" y="401.5">+updateRoutes(): void</text></g></g><g transform="translate(-22,2) scale(1,1)"><g><path fill="none" stroke="none"/><text fill="#000000" font-family="Arial" font-size="13px" font-style="normal" font-weight="normal" stroke="none" text-decoration="none" x="1301" y="416.5">-changePage(pageNumber: int): void</text></g></g><g transform="translate(-22,2) scale(1,1)"><g><path fill="none" stroke="none"/><text fill="#000000" font-family="Arial" font-size="13px" font-style="normal" font-weight="normal" stroke="none" text-decoration="none" x="1301" y="431.5">-addButtons(): void</text></g></g><g transform="translate(-22,2) scale(1,1)"><g><path fill="none" stroke="none"/><text fill="#000000" font-family="Arial" font-size="13px" font-style="normal" font-weight="normal" stroke="none" text-decoration="none" x="1301" y="446.5">-buttonPressed(theEvent: CallbackEvent): void</text></g></g><g transform="translate(-22,2) scale(1,1)"><g><path fill="none" stroke="none"/><text fill="#000000" font-family="Arial" font-size="13px" font-style="normal" font-weight="normal" stroke="none" text-decoration="none" x="1301" y="461.5">-addRoute(JsonId: int, x: int, y: int): void</text></g></g><g transform="translate(-22,2) scale(1,1)"><g><path fill="none" stroke="none"/><text fill="#000000" font-family="Arial" font-size="13px" font-style="normal" font-weight="normal" stroke="none" text-decoration="none" x="1301" y="476.5">-removeRoute(id: int): void</text></g></g><g transform="translate(-22,2) scale(1,1)"><g><path fill="none" stroke="none"/><text fill="#000000" font-family="Arial" font-size="13px" font-style="normal" font-weight="normal" stroke="none" text-decoration="none" x="1301" y="491.5">-addLabel(labelName: String, text: String): Textlabel</text></g></g><g transform="translate(-22,2) scale(1,1)"><g><path fill="none" stroke="none"/><text fill="#000000" font-family="Arial" font-size="13px" font-style="normal" font-weight="normal" stroke="none" text-decoration="none" x="1301" y="506.5">-addTitle(labelName: String, text: String): Textlabel</text></g></g><g transform="translate(-22,2) scale(1,1)"><path d="M 1051 279 L 1055 124" fill="none" stroke="#000000" stroke-miterlimit="10"/></g><g transform="translate(-22,2) scale(1,1)"><g><path fill="none" stroke="none"/><text fill="#000000" font-family="Arial" font-size="13px" font-style="normal" font-weight="normal" stroke="none" text-decoration="none" x="1092.43359375" y="208.5">+Any DB interaction</text></g></g><g transform="translate(-22,2) scale(1,1)"><path d="M 1178 366 L 1295 365" fill="none" stroke="#000000" stroke-miterlimit="10"/></g><g transform="translate(-22,2) scale(1,1)"><g><path fill="none" stroke="none"/><text fill="#000000" font-family="Arial" font-size="13px" font-style="normal" font-weight="normal" stroke="none" text-decoration="none" x="1197.5" y="396.5">+Get route data</text></g></g><g transform="translate(-22,2) scale(1,1)"><path d="M 349 424 L 393 471" fill="none" stroke="#000000" stroke-miterlimit="10"/></g><g transform="translate(-22,2) scale(1,1)"><g><path fill="none" stroke="none"/><text fill="#000000" font-family="Arial" font-size="13px" font-style="normal" font-weight="normal" stroke="none" text-decoration="none" x="397.5" y="459.5">+Creates url for datajson</text></g></g><g transform="translate(-22,2) scale(1,1)"><rect fill="#C0C0C0" height="87" opacity="0.2" stroke="none" width="285.85302734375" x="295" y="615"/></g><g transform="translate(-22,2) scale(1,1)"><rect fill="#ffffff" height="87" stroke="none" width="285.85302734375" x="288" y="608"/></g><g transform="translate(-22,2) scale(1,1)"><path d="M 288 608 L 573.85302734375 608 L 573.85302734375 695 L 288 695 L 288 608 Z Z" fill="none" stroke="#000000" stroke-miterlimit="10"/></g><g transform="translate(-22,2) scale(1,1)"><path d="M 288 648 L 573.85302734375 648" fill="none" stroke="#000000" stroke-miterlimit="10"/></g><g transform="translate(-22,2) scale(1,1)"><path d="M 288 658 L 573.85302734375 658" fill="none" stroke="#000000" stroke-miterlimit="10"/></g><g transform="translate(-22,2) scale(1,1)"><g><path fill="none" stroke="none"/><text fill="#000000" font-family="Arial" font-size="13px" font-style="italic" font-weight="bold" stroke="none" text-decoration="none" x="385.439208984375" y="627.5">PolyLineEncoder</text></g></g><g transform="translate(-22,2) scale(1,1)"><g><path fill="none" stroke="none"/><text fill="#000000" font-family="Arial" font-size="13px" font-style="normal" font-weight="normal" stroke="none" text-decoration="none" x="379.637451171875" y="642.5">(from Processing)</text></g></g><g transform="translate(-22,2) scale(1,1)"><g><path fill="none" stroke="none"/><text fill="#000000" font-family="Arial" font-size="13px" font-style="normal" font-weight="normal" stroke="none" text-decoration="none" x="293" y="675.5">+encodePoints(points: JSONArray): String</text><path d="M 293 675.5 L 536.85791015625 675.5" fill="none" stroke="#000000" stroke-miterlimit="10"/></g></g><g transform="translate(-22,2) scale(1,1)"><g><path fill="none" stroke="none"/><text fill="#000000" font-family="Arial" font-size="13px" font-style="normal" font-weight="normal" stroke="none" text-decoration="none" x="293" y="690.5">-encodePoint(coord: double): String</text><path d="M 293 690.5 L 498.232421875 690.5" fill="none" stroke="#000000" stroke-miterlimit="10"/></g></g><g transform="translate(-22,2) scale(1,1)"><rect fill="#C0C0C0" height="87" opacity="0.2" stroke="none" width="211.26171875" x="623" y="295"/></g><g transform="translate(-22,2) scale(1,1)"><rect fill="#ffffff" height="87" stroke="none" width="211.26171875" x="616" y="288"/></g><g transform="translate(-22,2) scale(1,1)"><path d="M 616 288 L 827.26171875 288 L 827.26171875 375 L 616 375 L 616 288 Z Z" fill="none" stroke="#000000" stroke-miterlimit="10"/></g><g transform="translate(-22,2) scale(1,1)"><path d="M 616 328 L 827.26171875 328" fill="none" stroke="#000000" stroke-miterlimit="10"/></g><g transform="translate(-22,2) scale(1,1)"><path d="M 616 338 L 827.26171875 338" fill="none" stroke="#000000" stroke-miterlimit="10"/></g><g transform="translate(-22,2) scale(1,1)"><g><path fill="none" stroke="none"/><text fill="#000000" font-family="Arial" font-size="13px" font-style="normal" font-weight="bold" stroke="none" text-decoration="none" x="693.082275390625" y="307.5">fileLoader</text></g></g><g transform="translate(-22,2) scale(1,1)"><g><path fill="none" stroke="none"/><text fill="#000000" font-family="Arial" font-size="13px" font-style="normal" font-weight="normal" stroke="none" text-decoration="none" x="670.341796875" y="322.5">(from Processing)</text></g></g><g transform="translate(-22,2) scale(1,1)"><g><path fill="none" stroke="none"/><text fill="#000000" font-family="Arial" font-size="13px" font-style="normal" font-weight="normal" stroke="none" text-decoration="none" x="621" y="355.5">+getAllFromFile(): void</text></g></g><g transform="translate(-22,2) scale(1,1)"><g><path fill="none" stroke="none"/><text fill="#000000" font-family="Arial" font-size="13px" font-style="normal" font-weight="normal" stroke="none" text-decoration="none" x="621" y="370.5">-listFileNames(dir: String[]): String[]</text></g></g><g transform="translate(-22,2) scale(1,1)"><path d="M 615 332 L 499 333" fill="none" stroke="#000000" stroke-miterlimit="10"/></g><g transform="translate(-22,2) scale(1,1)"><path d="M 828 343 L 919 353" fill="none" stroke="#000000" stroke-miterlimit="10"/></g><g transform="translate(-22,2) scale(1,1)"><rect fill="#C0C0C0" height="132" opacity="0.2" stroke="none" width="305.9814453125" x="575" y="143"/></g><g transform="translate(-22,2) scale(1,1)"><rect fill="#ffffff" height="132" stroke="none" width="305.9814453125" x="568" y="136"/></g><g transform="translate(-22,2) scale(1,1)"><path d="M 568 136 L 873.9814453125 136 L 873.9814453125 268 L 568 268 L 568 136 Z Z" fill="none" stroke="#000000" stroke-miterlimit="10"/></g><g transform="translate(-22,2) scale(1,1)"><path d="M 568 176 L 873.9814453125 176" fill="none" stroke="#000000" stroke-miterlimit="10"/></g><g transform="translate(-22,2) scale(1,1)"><path d="M 568 186 L 873.9814453125 186" fill="none" stroke="#000000" stroke-miterlimit="10"/></g><g transform="translate(-22,2) scale(1,1)"><g><path fill="none" stroke="none"/><text fill="#000000" font-family="Arial" font-size="13px" font-style="normal" font-weight="bold" stroke="none" text-decoration="none" x="679.816650390625" y="155.5">MQTTHandler</text></g></g><g transform="translate(-22,2) scale(1,1)"><g><path fill="none" stroke="none"/><text fill="#000000" font-family="Arial" font-size="13px" font-style="normal" font-weight="normal" stroke="none" text-decoration="none" x="669.70166015625" y="170.5">(from Processing)</text></g></g><g transform="translate(-22,2) scale(1,1)"><g><path fill="none" stroke="none"/><text fill="#000000" font-family="Arial" font-size="13px" font-style="normal" font-weight="normal" stroke="none" text-decoration="none" x="573" y="203.5">+sendMessage(message: String): void</text></g></g><g transform="translate(-22,2) scale(1,1)"><g><path fill="none" stroke="none"/><text fill="#000000" font-family="Arial" font-size="13px" font-style="normal" font-weight="normal" stroke="none" text-decoration="none" x="573" y="218.5">+clientConnected(): void</text></g></g><g transform="translate(-22,2) scale(1,1)"><g><path fill="none" stroke="none"/><text fill="#000000" font-family="Arial" font-size="13px" font-style="normal" font-weight="normal" stroke="none" text-decoration="none" x="573" y="233.5">+connectionLost(): void</text></g></g><g transform="translate(-22,2) scale(1,1)"><g><path fill="none" stroke="none"/><text fill="#000000" font-family="Arial" font-size="13px" font-style="normal" font-weight="normal" stroke="none" text-decoration="none" x="573" y="248.5">+messageReceived(topic: String, payload: Byte[])</text></g></g><g transform="translate(-22,2) scale(1,1)"><g><path fill="none" stroke="none"/><text fill="#000000" font-family="Arial" font-size="13px" font-style="normal" font-weight="normal" stroke="none" text-decoration="none" x="573" y="263.5">-checkIncomingPayload(obj: JSONObject): boolean</text></g></g><g transform="translate(-22,2) scale(1,1)"><path d="M 567 247 L 499 267" fill="none" stroke="#000000" stroke-miterlimit="10"/></g><g transform="translate(-22,2) scale(1,1)"><g><path fill="none" stroke="none"/><text fill="#000000" font-family="Arial" font-size="13px" font-style="normal" font-weight="normal" stroke="none" text-decoration="none" x="278.5" y="203.5">+DataJson calculated after routeJSON received</text></g></g><g transform="translate(-22,2) scale(1,1)"><path d="M 853 269 L 919 302" fill="none" stroke="#000000" stroke-miterlimit="10"/></g><g transform="translate(-22,2) scale(1,1)"><path d="M 853 269 L 919 302" fill="none" stroke="#000000" stroke-miterlimit="10"/></g><g transform="translate(-22,2) scale(1,1)"><g><path fill="none" stroke="none"/><text fill="#000000" font-family="Arial" font-size="13px" font-style="normal" font-weight="normal" stroke="none" text-decoration="none" x="878.5" y="244.5">+Save dataJSON to database</text></g></g><g transform="translate(-22,2) scale(1,1)"><path d="M 433 560 L 431 607" fill="none" stroke="#000000" stroke-miterlimit="10"/></g><g transform="translate(-22,2) scale(1,1)"><g><path fill="none" stroke="none"/><text fill="#000000" font-family="Arial" font-size="13px" font-style="normal" font-weight="normal" stroke="none" text-decoration="none" x="494.5" y="589.5">+Encodes points for url</text></g></g></g></svg>